<mxfile host="app.diagrams.net" modified="2024-04-10T17:52:23.481Z" agent="Mozilla/5.0 (Windows NT 10.0; Win64; x64) AppleWebKit/537.36 (KHTML, like Gecko) Chrome/123.0.0.0 Safari/537.36 Edg/123.0.0.0" etag="_LRKgkvH4GpkM1osEKw_" version="24.2.3" type="github">
  <diagram name="Page-1" id="2q1C1uKWbJOoHwZ1PiuB">
    <mxGraphModel dx="1149" dy="412" grid="1" gridSize="10" guides="1" tooltips="1" connect="1" arrows="1" fold="1" page="1" pageScale="1" pageWidth="850" pageHeight="1100" math="0" shadow="0">
      <root>
        <mxCell id="0" />
        <mxCell id="1" parent="0" />
        <mxCell id="OzQULG-dRKaMRiAVHQlx-1" value="&lt;u&gt;user_id&lt;/u&gt;" style="rounded=0;whiteSpace=wrap;html=1;" vertex="1" parent="1">
          <mxGeometry x="151" y="258" width="80" height="30" as="geometry" />
        </mxCell>
        <mxCell id="OzQULG-dRKaMRiAVHQlx-2" value="USER" style="text;html=1;align=center;verticalAlign=middle;resizable=0;points=[];autosize=1;strokeColor=none;fillColor=none;" vertex="1" parent="1">
          <mxGeometry x="141" y="228" width="60" height="30" as="geometry" />
        </mxCell>
        <mxCell id="OzQULG-dRKaMRiAVHQlx-3" value="username" style="rounded=0;whiteSpace=wrap;html=1;" vertex="1" parent="1">
          <mxGeometry x="231" y="258" width="80" height="30" as="geometry" />
        </mxCell>
        <mxCell id="OzQULG-dRKaMRiAVHQlx-4" value="user_type" style="rounded=0;whiteSpace=wrap;html=1;" vertex="1" parent="1">
          <mxGeometry x="311" y="258" width="80" height="30" as="geometry" />
        </mxCell>
        <mxCell id="OzQULG-dRKaMRiAVHQlx-5" value="&lt;u&gt;email&lt;/u&gt;" style="rounded=0;whiteSpace=wrap;html=1;" vertex="1" parent="1">
          <mxGeometry x="151" y="400" width="80" height="30" as="geometry" />
        </mxCell>
        <mxCell id="OzQULG-dRKaMRiAVHQlx-6" value="USER EMAIL" style="text;html=1;align=center;verticalAlign=middle;resizable=0;points=[];autosize=1;strokeColor=none;fillColor=none;" vertex="1" parent="1">
          <mxGeometry x="140" y="370" width="100" height="30" as="geometry" />
        </mxCell>
        <mxCell id="OzQULG-dRKaMRiAVHQlx-8" style="edgeStyle=orthogonalEdgeStyle;rounded=0;orthogonalLoop=1;jettySize=auto;html=1;entryX=0.5;entryY=1;entryDx=0;entryDy=0;curved=1;" edge="1" parent="1" source="OzQULG-dRKaMRiAVHQlx-7" target="OzQULG-dRKaMRiAVHQlx-1">
          <mxGeometry relative="1" as="geometry" />
        </mxCell>
        <mxCell id="OzQULG-dRKaMRiAVHQlx-7" value="&lt;u style=&quot;text-decoration: dotted underline&quot;&gt;user_id&lt;/u&gt;" style="rounded=0;whiteSpace=wrap;html=1;" vertex="1" parent="1">
          <mxGeometry x="231" y="400" width="80" height="30" as="geometry" />
        </mxCell>
        <mxCell id="OzQULG-dRKaMRiAVHQlx-9" value="&lt;u&gt;phone_number&lt;/u&gt;" style="rounded=0;whiteSpace=wrap;html=1;" vertex="1" parent="1">
          <mxGeometry x="342" y="400" width="89" height="30" as="geometry" />
        </mxCell>
        <mxCell id="OzQULG-dRKaMRiAVHQlx-10" value="USER PHONE NUMBER" style="text;html=1;align=center;verticalAlign=middle;resizable=0;points=[];autosize=1;strokeColor=none;fillColor=none;" vertex="1" parent="1">
          <mxGeometry x="311" y="370" width="160" height="30" as="geometry" />
        </mxCell>
        <mxCell id="OzQULG-dRKaMRiAVHQlx-12" style="edgeStyle=orthogonalEdgeStyle;rounded=0;orthogonalLoop=1;jettySize=auto;html=1;entryX=0.75;entryY=1;entryDx=0;entryDy=0;curved=1;" edge="1" parent="1" source="OzQULG-dRKaMRiAVHQlx-11" target="OzQULG-dRKaMRiAVHQlx-1">
          <mxGeometry relative="1" as="geometry">
            <Array as="points">
              <mxPoint x="471" y="340" />
              <mxPoint x="211" y="340" />
            </Array>
          </mxGeometry>
        </mxCell>
        <mxCell id="OzQULG-dRKaMRiAVHQlx-11" value="&lt;u style=&quot;text-decoration: dotted underline&quot;&gt;user_id&lt;/u&gt;" style="rounded=0;whiteSpace=wrap;html=1;" vertex="1" parent="1">
          <mxGeometry x="431" y="400" width="80" height="30" as="geometry" />
        </mxCell>
        <mxCell id="OzQULG-dRKaMRiAVHQlx-13" value="password" style="rounded=0;whiteSpace=wrap;html=1;" vertex="1" parent="1">
          <mxGeometry x="391" y="258" width="80" height="30" as="geometry" />
        </mxCell>
        <mxCell id="OzQULG-dRKaMRiAVHQlx-14" value="country" style="rounded=0;whiteSpace=wrap;html=1;" vertex="1" parent="1">
          <mxGeometry x="471" y="258" width="80" height="30" as="geometry" />
        </mxCell>
        <mxCell id="OzQULG-dRKaMRiAVHQlx-15" value="city" style="rounded=0;whiteSpace=wrap;html=1;" vertex="1" parent="1">
          <mxGeometry x="551" y="258" width="80" height="30" as="geometry" />
        </mxCell>
        <mxCell id="OzQULG-dRKaMRiAVHQlx-16" value="area" style="rounded=0;whiteSpace=wrap;html=1;" vertex="1" parent="1">
          <mxGeometry x="631" y="258" width="80" height="30" as="geometry" />
        </mxCell>
        <mxCell id="OzQULG-dRKaMRiAVHQlx-17" value="&lt;u&gt;article_id&lt;/u&gt;" style="rounded=0;whiteSpace=wrap;html=1;" vertex="1" parent="1">
          <mxGeometry x="151" y="180" width="80" height="30" as="geometry" />
        </mxCell>
        <mxCell id="OzQULG-dRKaMRiAVHQlx-18" value="ARTICLE" style="text;html=1;align=center;verticalAlign=middle;resizable=0;points=[];autosize=1;strokeColor=none;fillColor=none;" vertex="1" parent="1">
          <mxGeometry x="155" y="150" width="70" height="30" as="geometry" />
        </mxCell>
        <mxCell id="OzQULG-dRKaMRiAVHQlx-23" style="edgeStyle=orthogonalEdgeStyle;rounded=0;orthogonalLoop=1;jettySize=auto;html=1;entryX=0.75;entryY=0;entryDx=0;entryDy=0;curved=1;exitX=0.5;exitY=1;exitDx=0;exitDy=0;" edge="1" parent="1" source="OzQULG-dRKaMRiAVHQlx-19" target="OzQULG-dRKaMRiAVHQlx-1">
          <mxGeometry relative="1" as="geometry">
            <Array as="points">
              <mxPoint x="520" y="230" />
              <mxPoint x="211" y="230" />
            </Array>
          </mxGeometry>
        </mxCell>
        <mxCell id="OzQULG-dRKaMRiAVHQlx-19" value="&lt;u style=&quot;text-decoration: dotted underline&quot;&gt;user_id&lt;/u&gt;" style="rounded=0;whiteSpace=wrap;html=1;" vertex="1" parent="1">
          <mxGeometry x="480" y="180" width="80" height="30" as="geometry" />
        </mxCell>
        <mxCell id="OzQULG-dRKaMRiAVHQlx-20" value="date_published" style="rounded=0;whiteSpace=wrap;html=1;" vertex="1" parent="1">
          <mxGeometry x="231" y="180" width="89" height="30" as="geometry" />
        </mxCell>
        <mxCell id="OzQULG-dRKaMRiAVHQlx-21" value="title" style="rounded=0;whiteSpace=wrap;html=1;" vertex="1" parent="1">
          <mxGeometry x="320" y="180" width="40" height="30" as="geometry" />
        </mxCell>
        <mxCell id="OzQULG-dRKaMRiAVHQlx-22" value="content" style="rounded=0;whiteSpace=wrap;html=1;" vertex="1" parent="1">
          <mxGeometry x="360" y="180" width="50" height="30" as="geometry" />
        </mxCell>
        <mxCell id="OzQULG-dRKaMRiAVHQlx-25" value="article_type" style="rounded=0;whiteSpace=wrap;html=1;" vertex="1" parent="1">
          <mxGeometry x="410" y="180" width="70" height="30" as="geometry" />
        </mxCell>
        <mxCell id="OzQULG-dRKaMRiAVHQlx-28" value="&lt;u&gt;report_id&lt;/u&gt;" style="rounded=0;whiteSpace=wrap;html=1;" vertex="1" parent="1">
          <mxGeometry x="151" y="500" width="80" height="30" as="geometry" />
        </mxCell>
        <mxCell id="OzQULG-dRKaMRiAVHQlx-29" value="&lt;u style=&quot;text-decoration: dotted underline&quot;&gt;author_id&lt;/u&gt;" style="rounded=0;whiteSpace=wrap;html=1;" vertex="1" parent="1">
          <mxGeometry x="385" y="500" width="80" height="30" as="geometry" />
        </mxCell>
        <mxCell id="OzQULG-dRKaMRiAVHQlx-30" value="REPORT" style="text;html=1;align=center;verticalAlign=middle;resizable=0;points=[];autosize=1;strokeColor=none;fillColor=none;" vertex="1" parent="1">
          <mxGeometry x="155" y="470" width="70" height="30" as="geometry" />
        </mxCell>
        <mxCell id="OzQULG-dRKaMRiAVHQlx-32" value="&lt;u style=&quot;text-decoration: dotted underline&quot;&gt;intervention_id&lt;/u&gt;" style="rounded=0;whiteSpace=wrap;html=1;" vertex="1" parent="1">
          <mxGeometry x="465" y="500" width="85" height="30" as="geometry" />
        </mxCell>
      </root>
    </mxGraphModel>
  </diagram>
</mxfile>
